<?xml version="1.0" standalone="no"?>
<!DOCTYPE svg PUBLIC "-//W3C//DTD SVG 1.1//EN" "http://www.w3.org/Graphics/SVG/1.1/DTD/svg11.dtd">
<svg xmlns="http://www.w3.org/2000/svg" xmlns:xlink="http://www.w3.org/1999/xlink" id="svg" version="1.1" width="400" height="400" viewBox="0, 0, 400,400"><g id="svgg"><path id="path0" d="M86.083 316.431 C 67.478 319.303,56.372 340.875,59.920 367.250 C 61.075 375.832,64.936 380.931,70.777 381.590 C 78.125 382.419,83.629 371.904,84.520 355.333 C 84.778 350.545,85.169 349.403,86.690 348.994 C 88.313 348.557,88.795 349.102,89.419 352.083 C 92.088 364.827,99.454 378.872,106.370 384.406 C 112.068 388.965,118.043 388.947,123.424 384.355 C 129.946 378.790,127.167 372.530,120.520 377.814 C 117.443 380.260,115.425 380.485,112.404 378.716 C 107.864 376.058,101.292 365.634,97.662 355.333 C 96.589 352.288,95.435 348.164,95.608 347.998 C 95.686 347.924,96.500 347.584,97.417 347.244 C 106.768 343.771,111.440 337.648,110.097 330.629 C 108.309 321.284,97.198 314.715,86.083 316.431 M197.667 318.448 C 188.283 319.153,181.406 323.218,179.205 329.361 C 178.614 331.009,178.557 333.549,179.094 334.269 C 180.659 336.367,182.823 335.615,185.081 332.188 C 191.371 322.640,210.350 324.343,215.582 334.926 C 219.179 342.202,215.661 354.269,207.819 361.549 C 202.526 366.464,194.416 369.887,192.051 368.203 C 191.057 367.495,190.915 366.922,190.928 363.667 C 190.963 354.817,193.363 345.106,197.763 336.018 C 199.541 332.347,199.582 331.671,198.109 330.379 C 195.683 328.248,192.523 329.515,190.474 333.440 C 186.294 341.450,183.043 354.970,182.717 365.698 L 182.617 368.979 183.066 369.896 C 186.380 376.669,201.932 375.486,212.000 367.694 C 221.539 360.312,226.455 347.097,224.065 335.259 C 221.809 324.084,211.346 317.421,197.667 318.448 M163.083 320.613 C 157.036 321.968,152.265 329.404,151.498 338.667 C 151.053 344.042,149.940 345.506,146.315 345.482 C 141.880 345.452,139.332 347.806,136.071 354.948 C 134.027 359.427,133.404 360.459,131.764 362.090 C 128.532 365.306,123.544 365.951,119.740 363.646 C 118.568 362.935,118.581 362.908,120.208 362.675 C 129.158 361.398,134.469 356.174,132.693 350.396 C 130.814 344.281,122.627 343.847,117.195 349.574 C 105.465 361.942,115.211 376.177,130.500 369.008 C 134.879 366.954,135.905 366.922,137.865 368.775 C 141.803 372.497,148.024 371.197,149.968 366.247 L 150.278 365.458 150.785 366.354 C 152.667 369.675,157.376 371.487,161.370 370.427 C 168.031 368.658,173.844 360.906,169.567 359.495 C 167.896 358.943,166.408 359.671,163.666 362.381 C 160.559 365.452,158.686 365.835,156.875 363.772 C 154.357 360.905,155.015 357.984,159.411 352.500 C 166.145 344.101,171.007 334.147,170.998 328.781 C 170.988 323.607,167.195 319.692,163.083 320.613 M311.333 320.838 C 307.799 321.563,305.171 324.026,301.817 329.757 C 297.588 336.985,294.915 344.654,293.920 352.417 C 293.302 357.242,293.133 358.257,292.746 359.476 C 291.346 363.886,287.240 365.951,284.448 363.649 C 282.725 362.229,282.735 361.424,284.532 356.417 C 286.779 350.154,287.029 349.347,287.057 348.250 C 287.104 346.396,286.173 345.417,284.363 345.417 C 282.199 345.417,281.133 346.241,278.974 349.583 C 276.607 353.246,273.951 354.645,272.142 353.180 L 271.770 352.879 272.348 352.372 C 274.913 350.119,273.733 345.599,270.519 345.367 C 267.621 345.157,266.300 346.520,265.834 350.198 C 265.167 355.464,263.262 360.072,260.186 363.865 C 259.201 365.079,259.167 365.059,258.642 362.958 C 257.797 359.579,257.663 356.923,258.110 352.351 C 258.550 347.842,258.135 346.090,256.447 345.324 C 253.318 343.903,250.842 347.302,250.835 353.027 C 250.824 361.851,242.017 367.471,233.958 363.797 C 232.478 363.122,232.480 363.120,235.045 362.618 C 241.947 361.268,245.601 358.718,246.898 354.345 C 248.881 347.663,240.962 343.088,234.255 347.041 C 228.034 350.707,224.212 360.784,227.126 365.833 C 230.922 372.411,239.845 372.709,249.667 366.585 L 251.417 365.494 251.517 366.507 C 251.753 368.887,254.220 370.697,257.250 370.713 C 260.052 370.727,262.277 369.232,265.998 364.833 C 269.549 360.637,271.747 358.999,274.497 358.500 C 275.394 358.338,276.667 358.379,276.667 358.570 C 276.667 358.600,276.565 358.915,276.442 359.271 C 275.044 363.285,277.454 368.479,281.458 370.081 C 284.746 371.398,287.562 370.966,291.117 368.602 C 294.219 366.539,295.704 366.543,297.122 368.622 C 298.672 370.895,301.901 371.277,306.833 369.770 C 310.694 368.590,311.718 368.562,314.667 369.559 C 321.997 372.036,329.839 371.105,335.849 367.045 C 339.618 364.498,341.008 360.451,338.616 358.993 C 337.212 358.137,336.180 358.631,333.333 361.527 C 331.809 363.077,330.841 363.924,330.333 364.154 C 329.398 364.577,328.924 364.605,329.069 364.229 C 329.888 362.093,329.160 359.722,326.868 357.057 C 323.104 352.682,322.626 351.655,322.993 348.736 C 323.389 345.591,322.126 344.106,319.513 344.642 C 317.377 345.081,316.777 345.888,312.823 353.636 C 309.157 360.821,308.744 361.529,307.397 362.934 C 304.272 366.195,300.444 365.081,300.203 360.840 C 300.064 358.403,300.860 357.023,304.685 353.060 C 314.682 342.703,321.207 328.003,317.936 323.210 C 316.693 321.389,313.769 320.339,311.333 320.838 M90.702 324.351 C 98.328 325.173,102.353 329.062,101.098 334.398 C 99.934 339.342,95.261 342.553,88.362 343.148 C 85.542 343.391,85.536 341.974,88.343 338.432 C 90.823 335.301,90.909 333.310,88.614 332.140 C 85.435 330.518,82.624 332.596,80.913 337.833 C 79.728 341.460,78.898 342.500,77.189 342.500 C 74.595 342.500,74.328 344.627,76.601 347.190 C 78.561 349.400,78.595 349.545,78.074 353.560 C 77.402 358.742,75.764 367.634,75.028 370.093 C 73.986 373.572,71.322 375.030,69.663 373.029 C 67.531 370.458,66.886 355.086,68.509 345.541 C 70.971 331.065,79.290 323.122,90.702 324.351 M164.275 328.361 C 164.951 329.108,164.183 332.257,161.886 338.167 C 160.225 342.437,155.662 351.072,155.531 350.191 C 155.157 347.684,158.296 334.007,160.021 330.626 C 161.130 328.451,163.308 327.292,164.275 328.361 M311.541 328.651 C 312.897 329.893,309.896 337.268,304.042 347.083 C 301.768 350.894,301.000 351.473,301.000 349.373 C 301.000 348.276,305.277 334.942,306.332 332.750 C 307.941 329.405,310.320 327.533,311.541 328.651 M288.956 332.506 C 285.258 333.430,283.734 337.827,286.216 340.405 C 287.740 341.987,291.126 341.855,293.078 340.136 C 296.465 337.155,293.359 331.405,288.956 332.506 M149.500 350.395 C 149.500 351.155,148.335 360.090,148.149 360.750 C 147.073 364.585,143.405 365.631,141.885 362.538 C 139.867 358.428,143.067 352.060,147.996 350.379 C 149.370 349.911,149.500 349.912,149.500 350.395 M126.837 351.778 C 127.419 352.123,127.409 352.203,126.550 353.985 C 125.274 356.634,122.016 358.833,119.367 358.833 L 118.804 358.833 118.911 358.125 C 119.525 354.053,124.263 350.258,126.837 351.778 M240.690 351.762 C 241.293 352.074,241.268 352.337,240.475 353.975 C 239.173 356.664,236.766 358.331,233.357 358.905 L 232.796 358.999 232.913 358.375 C 233.649 354.419,238.254 350.503,240.690 351.762 M321.391 357.512 C 324.112 363.604,323.280 366.364,318.933 365.669 C 316.405 365.265,315.866 364.556,316.633 362.643 C 317.820 359.680,320.056 354.823,320.175 354.947 C 320.247 355.022,320.794 356.176,321.391 357.512 " stroke="none" fill="#040404" fill-rule="evenodd"/><path id="path1" d="M188.887 11.566 C 188.947 11.723,189.999 13.629,191.224 15.801 C 195.265 22.969,197.467 27.198,200.923 34.431 C 204.981 42.926,208.790 53.431,210.735 61.500 C 214.392 76.663,214.550 86.777,211.412 104.833 C 206.349 133.964,203.328 164.250,202.484 194.333 C 202.082 208.671,202.378 210.846,205.311 215.117 C 206.478 216.817,207.152 217.572,213.902 224.747 C 222.337 233.713,224.363 235.867,225.779 237.376 L 227.141 238.828 227.232 237.789 C 227.282 237.218,227.404 234.838,227.503 232.500 C 228.651 205.441,231.314 172.657,234.848 142.083 C 236.712 125.960,237.251 123.978,242.796 112.871 C 249.815 98.810,252.248 90.047,252.248 78.833 C 252.248 58.633,242.171 44.896,213.167 25.557 C 207.383 21.700,199.695 17.096,194.098 14.137 C 192.531 13.308,190.694 12.327,190.013 11.955 C 189.107 11.459,188.806 11.355,188.887 11.566 M128.833 27.354 C 115.068 34.588,103.056 42.838,91.512 52.989 C 74.797 67.686,69.601 77.072,69.596 92.583 C 69.593 101.763,71.133 108.412,76.187 121.049 C 83.556 139.470,84.513 143.710,88.570 175.917 C 89.421 182.678,89.497 183.321,90.750 194.417 C 93.461 218.427,95.651 241.897,97.328 264.917 C 98.011 274.288,98.408 277.459,99.328 280.917 C 101.264 288.190,104.822 292.386,111.172 294.886 C 117.149 297.240,139.069 301.818,151.583 303.327 C 175.809 306.249,195.952 301.505,211.083 289.315 C 222.094 280.445,229.075 266.177,226.690 257.417 C 225.689 253.739,225.015 252.802,212.825 238.166 C 201.471 224.532,190.951 211.878,185.745 205.592 C 178.302 196.603,176.402 194.548,173.667 192.521 C 162.995 184.616,151.115 194.201,153.767 208.576 C 155.476 217.835,164.093 231.779,174.579 242.250 C 179.308 246.972,180.032 247.265,183.167 245.718 C 187.759 243.451,192.906 243.316,197.725 245.336 C 200.285 246.409,204.349 249.519,202.858 249.264 C 190.604 247.164,178.238 253.955,173.910 265.161 C 171.236 272.084,171.586 280.291,174.830 286.760 C 175.727 288.548,175.715 288.559,173.854 287.731 C 169.340 285.723,166.437 280.342,166.213 273.570 C 166.113 270.535,166.226 269.320,167.176 263.167 C 168.980 251.497,167.980 246.299,163.040 241.652 C 160.039 238.828,157.738 238.293,152.917 239.298 C 141.571 241.661,135.366 241.409,129.080 238.330 C 121.878 234.802,119.131 228.561,119.674 216.960 C 119.761 215.103,119.905 212.046,119.994 210.167 C 120.686 195.600,120.144 180.228,118.408 165.167 C 117.259 155.201,116.388 150.120,112.592 131.242 C 104.225 89.629,107.066 72.623,129.584 29.542 C 130.555 27.685,131.289 26.168,131.216 26.169 C 131.143 26.171,130.071 26.704,128.833 27.354 M140.550 165.666 C 132.499 166.515,128.903 169.299,127.633 175.667 C 127.366 177.004,127.403 217.626,127.674 220.528 C 128.488 229.257,133.764 233.214,144.000 232.773 C 152.415 232.410,153.610 230.987,150.526 224.997 C 147.024 218.194,145.511 213.699,144.974 208.500 C 144.085 199.897,147.988 191.618,154.484 188.326 C 157.776 186.659,158.448 183.784,157.233 176.583 C 155.836 168.314,150.230 164.644,140.550 165.666 M177.533 165.939 C 169.438 167.187,166.110 170.023,165.339 176.329 C 164.688 181.657,165.818 183.393,170.035 183.542 C 172.745 183.637,174.077 183.987,176.360 185.202 C 180.082 187.183,181.552 188.723,191.913 201.500 L 193.576 203.551 193.694 202.984 C 194.351 199.824,194.213 183.335,193.484 177.770 C 192.299 168.731,186.640 164.533,177.533 165.939 M291.167 236.769 C 286.043 237.093,281.029 238.126,277.204 239.645 C 269.376 242.754,268.044 245.432,273.035 248.028 C 277.224 250.208,277.153 250.802,271.498 260.767 C 264.305 273.445,262.373 276.084,257.786 279.507 C 251.759 284.005,243.637 284.160,238.960 279.868 C 235.890 277.051,232.114 278.166,230.037 282.503 C 227.663 287.458,227.649 289.647,229.984 290.825 C 238.811 295.281,252.166 293.987,261.101 287.811 C 266.778 283.886,269.076 280.811,274.788 269.500 C 277.642 263.847,278.568 262.205,280.146 260.000 C 281.475 258.141,283.316 256.000,283.585 256.000 C 283.979 256.000,287.396 258.876,289.765 261.201 L 292.113 263.506 292.489 261.961 C 294.808 252.449,303.442 243.968,312.652 242.156 C 313.976 241.896,313.953 241.851,312.042 240.957 C 305.583 237.937,297.699 236.355,291.167 236.769 M157.573 323.708 L 157.083 324.250 157.625 323.760 C 157.923 323.491,158.167 323.248,158.167 323.219 C 158.167 323.090,158.029 323.203,157.573 323.708 M75.573 329.708 L 75.083 330.250 75.625 329.760 C 76.130 329.304,76.243 329.167,76.115 329.167 C 76.086 329.167,75.842 329.410,75.573 329.708 M273.709 349.083 C 273.711 349.450,273.745 349.580,273.785 349.373 C 273.824 349.166,273.823 348.866,273.781 348.706 C 273.739 348.547,273.707 348.717,273.709 349.083 M67.564 357.833 C 67.564 358.979,67.591 359.448,67.623 358.875 C 67.656 358.302,67.656 357.365,67.623 356.792 C 67.591 356.219,67.564 356.688,67.564 357.833 M168.491 366.125 L 167.917 366.750 168.542 366.176 C 169.123 365.641,169.243 365.500,169.116 365.500 C 169.088 365.500,168.807 365.781,168.491 366.125 M182.539 367.833 C 182.539 368.154,182.573 368.285,182.615 368.125 C 182.657 367.965,182.657 367.702,182.615 367.542 C 182.573 367.381,182.539 367.512,182.539 367.833 M151.500 367.552 C 151.500 367.581,151.744 367.825,152.042 368.094 L 152.583 368.583 152.094 368.042 C 151.638 367.537,151.500 367.423,151.500 367.552 M301.458 370.784 C 301.665 370.824,302.002 370.824,302.208 370.784 C 302.415 370.745,302.246 370.712,301.833 370.712 C 301.421 370.712,301.252 370.745,301.458 370.784 M122.208 371.115 C 122.369 371.157,122.631 371.157,122.792 371.115 C 122.952 371.073,122.821 371.039,122.500 371.039 C 122.179 371.039,122.048 371.073,122.208 371.115 M237.127 371.118 C 237.334 371.158,237.634 371.156,237.794 371.115 C 237.953 371.073,237.783 371.040,237.417 371.042 C 237.050 371.044,236.920 371.078,237.127 371.118 " stroke="none" fill="#fb1414" fill-rule="evenodd"/></g></svg>